<svg xmlns="http://www.w3.org/2000/svg" xmlns:xlink="http://www.w3.org/1999/xlink" xmlns:inkscape="http://www.inkscape.org/namespaces/inkscape" version="1.1" viewBox="61.73 142.72 860.53 663.99">
<defs>
<clipPath id="clip_0">
<path d="M61.7296 142.719H922.259V806.708H61.7296Z"/>
</clipPath>
</defs>
<g clip-path="url(#clip_0)">
<path transform="matrix(1,0,0,1,807.8851,369.6992)" d="M0 0C-1.6292-.1653-3.2017-1.5157-2.9656-3.8485-2.7249-4.6797-2.3943-5.4635-1.988-6.2144-1.6057-5.6808-1.1145-5.2085-.6895-4.7222-.2031-4.1697 .2786-3.6172 .7556-3.0552 1.3506-2.3563 1.936-1.6481 2.5264-.9397 1.8936-.203 .9397 .0945 0 0Z"/>
<path transform="matrix(1,0,0,1,831.8312,319.6158)" d="M0 0C-.0234 .5619-.0613 1.1285-.1038 1.6906-.9443 13.411-5.2131 24.4137-11.3757 34.283-11.7581 34.0375-12.1406 33.7966-12.5327 33.551-13.5903 32.8994-14.6953 32.3328-15.7861 31.7424-16.0505 31.6008-16.3103 31.4543-16.5701 31.3127-14.1807 27.4878-12.2397 23.3937-10.5352 19.224-3.7588 4.2028-5.2983-13.2032-12.2822-27.8278-13.8643-31.4545-8.3818-33.9761-6.7148-30.3353-2.8096-21.4735 .0474-11.8822 .0474-2.1534 .0474-1.4362 .0317-.7185 0 0Z"/>
<path transform="matrix(1,0,0,1,907.4003,210.2313)" d="M0 0C-.0283 .6281-.2786 1.275-.8357 1.8794-27.8608 28.1537-53.6816 55.6744-81.5049 81.1223-85.24 85.24-90.1086 79.2334-85.2825 76.3246-66.6631 59.1075-48.6338 41.2766-30.9822 23.0773-22.4822 14.5822-13.8784 6.2002-5.3359-2.2477-3.2405-4.5199 .0024-2.5126 .0027-.1174 .0027-.0784 .0017-.0392 0 0Z"/>
<path transform="matrix(1,0,0,1,852.6371,175.037)" d="M0 0C0 .085-.0093 .1747-.0234 .2644-.0945 1.223-.6611 1.955-1.3647 2.5736-3.6455 4.7552-5.8508 6.9935-8.0134 9.2885-14.6387 16.4709-21.1694 23.7478-27.417 31.2655-39.7087 46.3387-51.4387 61.0671-63.4424 76.1923-65.1423 78.2606-66.7244 80.4423-68.5754 82.3831-71.3 85.2448-75.7673 81.2167-73.0757 78.2512-66.2285 70.3557-60.0801 61.8463-53.4077 53.7903-40.7239 37.9663-28.2007 21.9675-14.3318 7.1399-11.3284 3.8627-8.2402 .6799-5.0054-2.3706-3.1846-4.0662 .0027-2.4897 .0027-.1185 .0027-.0792 .0017-.0397 0 0Z"/>
<path transform="matrix(1,0,0,1,796.0514,303.9429)" d="M0 0C-.0095 .2976-.0708 .5997-.1936 .8878-3.759 6.3702-13.5623 6.4127-19.5027 7.48-33.1167 8.9155-47.6042 8.127-60.1606 2.2809-61.6624 1.5583-62.2148-.3918-61.4639-1.8369-60.2644-4.1508-57.6484-3.5179-55.802-2.4177-41.6309 3.1733-25.7217 2.8948-10.9697-.0377-9.0854-.524-7.1494-.9916-5.4824-2.0258-4.623-2.9844-3.3386-3.5132-2.0164-3.0221-.8235-2.5924 .0027-1.3615 .0027-.1223 .0027-.0814 .0017-.0408 0 0Z"/>
<path transform="matrix(1,0,0,1,765.4232,340.1761)" d="M0 0C-.0566 1.2231-.1982 2.4508-.4392 3.6927-1.3694 7.2014-3.2913 18.119-8.6887 14.3176-10.3699 12.7688-9.1375 10.455-7.8577 7.0645-5.8884 1.8558-3.8108-5.8838-11.999-17.2831-15.0164-21.5095-18.7705-25.7925-22.8318-28.928-24.7158-30.3116-26.6755-31.5441-28.6682-32.7577-30.9255-34.1508-30.0188-37.9568-27.417-38.2732-22.1516-37.5602-15.1533-30.4816-11.5503-26.5717-5.2754-19.538 .0247-10.6627 .0249-1.1256 .0249-.7512 .0166-.3765 0 0Z"/>
<path transform="matrix(1,0,0,1,760.007,355.0889)" d="M0 0C-.0425 .9585-.5005 1.9266-1.5396 2.6917-17.4722 8.8918-39.468-10.9791-50.447-21.231-60.0991-30.8783-70.2329-40.0677-79.0586-50.5037-81.552-53.5542-76.9668-57.4501-74.3555-54.3948-72.1785-51.8921-69.9827-49.4034-67.7302-46.9526-52.2886-32.5925-27.9932-2.2809-5.9924-2.2147-3.6614-5.7206 .0029-3.0345 .0032-.1467 .0032-.0978 .002-.0491 0 0Z"/>
<path transform="matrix(1,0,0,1,718.3527,264.3191)" d="M0 0C-.0237 .5195-.1985 1.0673-.5715 1.6104-10.4265 13.5621-21.467 24.6923-30.4863 37.1873-34.2595 43.6613-40.9648 36.9133-35.1943 33.3103-26.1514 20.891-15.418 9.8317-5.5769-1.8888-3.6741-4.5544 .0022-2.6918 .0024-.1166 .0024-.0778 .0015-.0391 0 0Z"/>
<path transform="matrix(1,0,0,1,786.097,256.0317)" d="M0 0C-.0615 1.4214-1.0012 2.7908-2.8806 2.8853-8.5991 3.3386-14.2705 2.3138-19.9797 2.1202-35.0056 2.2289-51.0137 .8311-64.7742 8.004-66.8613 11.2388-72.2209 8.7407-70.4219 5.0575-66.833 .4863-56.3025-1.785-50.6597-2.9183-40.2188-4.1838-29.646-4.1414-19.1484-3.943-13.7888-3.7635-8.4575-2.8003-3.093-3.2158-1.0576-3.2753 .0032-1.7084 .0032-.1509 .0032-.1005 .0022-.0503 0 0Z"/>
<path transform="matrix(1,0,0,1,733.8602,351.4103)" d="M0 0C-.033 .7413-.3589 1.4874-1.0955 2.125-8.9673 9.9119-16.9148 17.6184-26.6567 23.0725-33.2488 27.3556-40.5352 30.7555-48.4116 31.6858-63.5181 32.7625-72.7498 17.302-66.8801 3.8958-62.3848-7.9569-53.8848-13.7982-42.7122-18.6384-37.9568-20.9995-33.3528-24.1493-28.1772-25.4337-24.2153-25.4998-23.8706-19.734-27.8088-19.2665-34.5286-16.4851-40.6909-12.5374-47.3303-9.5719-54.5317-6.0161-59.5562 .7838-61.9927 8.3346-64.2971 16.6173-59.3059 25.0416-50.4612 25.6886-39.468 24.9991-30.1699 18.2371-21.3396 12.2588-15.2385 8.0465-10.4832 2.3422-4.9912-2.5784-2.7288-4.4467 .0024-2.382 .0029-.1254 .0029-.0834 .002-.042 0 0Z"/>
<path transform="matrix(1,0,0,1,783.632,352.5767)" d="M0 0C0 .0236-.0046 .0425-.0046 .0614-.0708 1.6292-.2598 3.2535-.562 4.9204-4.4812 20.7397-19.8708 29.9574-31.936 39.3923-38.396 44.3506-45.1487 49.1578-53.0112 51.5897-60.7507 53.9272-69.7087 53.6864-76.929 49.8519-86.5386 44.1665-87.1902 30.5525-80.4895 22.3264-78.3457 19.5026-76.093 16.6031-73.1277 14.601-69.7041 12.528-66.5637 17.6326-69.9023 19.7859-72.4854 21.7314-74.53 24.3853-76.2866 27.0769-79.1436 31.1899-79.8567 36.4032-77.3774 40.8845-71.5127 50.0551-55.9814 47.4153-47.8357 42.797-40.7524 38.906-34.6277 33.6832-28.1536 28.928-20.3147 22.9734-12.2917 16.5087-7.7253 7.5885-5.6714 2.0164-4.3538-8.9297-10.8704-11.8857-13.6519-13.1041-16.7258-13.6377-19.6914-12.7971-23.6296-12.1597-24.593-18.1096-20.6831-18.8226-6.6765-21.1631 .03-13.0492 .0305-1.3822 .0308-.9263 .0205-.4662 0 0Z"/>
<path transform="matrix(1,0,0,1,812.7252,379.0066)" d="M0 0C-.0093 .1511-.0142 .307-.0283 .4581-.6611 5.8177-4.3538 10.0913-7.5884 14.1666-13.3496 22.2556-21.0371 28.7156-29.6316 33.6361-38.5896 37.9144-52.6616 44.516-62.4695 41.031-72.6033 35.1614-74.3506 17.2784-64.6843 10.1716-61.9453 7.2533-57.5444 11.3285-60.1841 14.2988-61.7942 15.9232-63.8201 17.2926-64.3633 19.6726-65.5862 25.1031-64.7126 32.8192-59.3718 35.7045-50.2627 36.7056-41.3567 32.262-33.2156 28.6542-24.7109 23.8895-17.283 17.4674-11.6589 9.4963-8.3252 5.4305-4.2593 .3589-6.9934-5.0811-9.2554-10.1526-15.5122-16.8676-21.311-17.0234-24.5173-17.2264-27.5916-16.2773-30.6042-15.2998-32.1863-14.7946-33.9333-15.772-34.4104-17.3445-35.3784-21.6559-29.5229-21.8541-26.6519-22.7325-22.3643-23.5022-17.7034-23.3275-13.8218-21.1836-11.3379-19.5592-8.8682-17.6089-6.7244-15.3754-6.356-14.9031-5.9167-14.4687-5.5295-14.0295-5.2981-13.7651-5.062-13.5006-4.8354-13.2314-1.9404-9.6273 .0161-5.4127 .0161-.7344 .0161-.4907 .0107-.2461 0 0Z"/>
<path transform="matrix(1,0,0,1,682.8749,339.2979)" d="M0 0C-.0378 .8311-.5051 1.6812-1.5959 2.4745-2.8333 3.2158-4.5664 2.9325-5.4919 1.8464-7.9805 .7272-10.332-.6611-12.7073-1.988-19.6252-6.0397-26.7937-9.6663-33.584-13.9257-52.147-24.5505-70.9319-34.8119-89.1499-46.0128-91.6101-47.6515-95.2415-48.5109-96.5308-51.3347-97.3098-53.8281-94.25-56.2363-92.0305-54.7583-81.3442-48.525-70.875-41.9141-60.0142-35.9594-45.1108-27.6342-30.425-18.917-15.5171-10.6155-11.8384-8.4716-8.127-6.3749-4.3821-4.3585-2.2217-3.7327 .0022-1.9917 .0024-.1053 .0024-.0702 .0015-.0352 0 0Z"/>
<path transform="matrix(1,0,0,1,891.8502,455.6617)" d="M0 0C-.019 .4438-.1418 .9255-.3872 1.4591-3.1309 5.2416-7.5366 .4769-10.4456-.8878-14.1194-3.1923-17.8215-5.4352-21.467-7.7869-37.6973-16.8298-54.5225-24.9142-70.2756-34.8119-78.0671-40.2566-86.874-43.9966-95.1001-48.7281-95.7942-49.0587-96.4695-49.4836-97.2439-49.5876-100.3889-50.3667-100.0725-55.2258-96.8188-55.5847-94.3208-55.6886-92.1675-53.932-89.9812-52.9261-83.9651-49.4128-77.5854-46.5417-71.5977-42.9907-60.8455-35.7091-49.2808-29.7544-37.9146-23.5023-27.8279-18.1709-17.6799-13.038-8.1743-6.696-5.9402-4.5272 .0022-3.5005 .0027-.127 .0027-.0848 .0017-.0428 0 0Z"/>
<path transform="matrix(1,0,0,1,921.6849,417.5726)" d="M0 0C-.0049 .0945-.0142 .189-.0237 .2881-.9163 10.3369-7.2393 18.5441-11.3474 27.417-14.124 31.0389-26.1138 42.6837-30.3826 42.1124-31.9739 41.678-32.9751 39.9685-32.5264 38.3677-32.073 36.5497-30.137 35.9924-28.7581 35.0338-24.2957 31.7141-19.8049 28.1866-16.2964 23.8423-13.6614 17.6987-9.8931 12.1832-7.395 5.9594-6.6914 3.8722-6.4033 1.6716-6.0776-.4958-5.5422-4.2848 .0034-3.7195 .0034-.1567 .0034-.1051 .0022-.0529 0 0Z"/>
<path transform="matrix(1,0,0,1,922.006,412.8505)" d="M0 0C-.0378 .8547-.4155 1.7-1.1948 2.2809-3.9431 4.6089-11.8621-1.3221-14.9834-2.4744-26.0852-8.1647-37.0408-14.1617-47.5051-20.9664-70.7571-35.2133-94.1555-49.2145-117.5161-63.2913-134.0437-72.7734-149.7593-83.6581-166.5417-92.6632-176.4866-97.3571-169.8945-103.5289-166.3528-99.7891-149.2397-90.1039-132.8442-79.3892-115.8682-69.449-89.9858-53.7147-63.877-38.3771-38.2024-22.317-28.6116-16.4473-18.0388-10.8799-8.2166-5.8224-6.3843-4.9064-4.5098-4.0421-2.6396-3.2111-.9534-3.001 .0032-1.5743 .0032-.1429 .0032-.0953 .002-.0476 0 0Z"/>
<path transform="matrix(1,0,0,1,698.4535,282.2399)" d="M0 0C0 .0046 0 .0142 0 .0188-.019 .4722-.1511 .9633-.4158 1.511-1.2847 3.0269-3.4426 3.4944-4.8403 2.4271-10.5779-.1748-15.9941-3.3434-21.3396-6.6677-29.2256-11.6213-37.5886-15.7438-45.4417-20.754-54.6025-26.0665-63.8533-31.2231-72.835-36.8236-75.1016-38.1836-77.2739-39.6852-79.5923-40.9554-81.9299-41.9565-84.9568-44.2137-82.9121-46.9432-80.8438-49.5027-78.1475-47.0754-76.0178-45.9563-72.429-43.8644-69.01-41.4844-65.407-39.416-57.521-34.7317-49.5735-30.1653-41.6213-25.5895-30.2031-18.8368-18.7095-12.1832-7.2488-5.5061-4.9424-4.0619 .0024-3.1274 .0024-.1232 .0024-.0824 .0017-.0415 0 0Z"/>
<path transform="matrix(1,0,0,1,626.36,226.8486)" d="M0 0C-.0237 .4628-.1653 .954-.4534 1.4545L-.4487 1.4497C-4.7505 12.58-12.0273 21.9818-18.0859 32.1533-26.3357 43.7416-33.8628 55.7926-40.8516 68.1836-40.2898 72.6224-47.3447 72.9246-47.3447 68.4669-46.2112 63.7494-42.783 59.7261-40.5352 55.4337-34.6372 45.6399-28.4937 36.3325-22.0386 27.0345-17.6563 19.0162-11.4324 11.8291-8.0278 3.3906-7.2864 1.6906-6.5449 0-5.7092-1.6575-4.0378-4.5345 .002-2.8121 .0024-.1158 .0024-.0773 .0015-.0389 0 0Z"/>
<path transform="matrix(1,0,0,1,584.871,296.2128)" d="M0 0C-.0049 .1699-.0332 .3352-.0852 .5052-2.3943 5.9121-7.6926-.2267-10.9839-1.4309-16.8204-4.3256-23.1056-6.1956-29.1123-8.6982-44.0957-14.9929-59.4003-20.4801-74.634-26.1232-78.5912-27.6814-84.9095-28.5361-87.4972-31.9834-88.5834-34.3491-85.868-37.1257-83.4834-35.9594-81.7598-35.1047-80.0173-34.3397-78.2135-33.6738-65.7799-29.6553-53.6439-24.7584-41.371-20.2723-35.0481-17.7838-28.8005-15.0968-22.4587-12.646-18.4183-10.8439 0-5.2449 .002-.0959 .002-.0636 .0015-.0322 0 0Z"/>
<path transform="matrix(1,0,0,1,545.2897,175.8303)" d="M0 0C-.0283 .6611-.307 1.3363-.9255 1.936-11.3994 10.9885-20.924 21.5425-27.7192 33.6691-34.3822 47.7271-38.9722 62.6113-43.3354 77.4956-44.261 80.1779-45.3849 82.7939-46.1641 85.5233-47.2454 89.3389-53.0867 87.7899-52.0526 83.9036-47.5712 71.9045-44.9174 59.3058-39.9685 47.4625-36.5591 38.0513-32.8711 28.6211-26.6614 20.6548-20.2251 12.3107-13.3448 4.3066-5.2039-2.4177-3.0684-4.5487 .0027-2.4579 .0027-.1207 .0028-.0806 .0017-.0403 0 0Z"/>
<path transform="matrix(1,0,0,1,707.6805,165.366)" d="M0 0C-.0142 .2881-.0708 .576-.1699 .8594-.7178 2.4083-2.5122 3.3008-4.0706 2.7152-8.1221 1.1947-12.1643-.3589-16.2727-1.7236-22.7185-3.9336-29.2634-5.8555-35.8508-7.5839-74.9363-18.3929-102.2542-15.6257-139.7008-1.3411-147.5491 1.818-155.0999 5.8224-161.9376 10.8185-163.562 12.5184-166.4662 13.8738-168.0812 11.3947-168.9736 10.0062-168.5769 8.0985-167.1934 7.1919-162.4806 3.4896-157.376 .3258-152.0258-2.3848-140.6736-8.2921-128.1787-11.6307-116.0618-15.6068-90.7224-22.3973-64.0044-21.4104-38.7974-14.6199-29.6128-12.306-20.4753-9.7372-11.5505-6.5544-8.3677-5.4022-5.1943-4.2263-2.0305-3.0364-.7888-2.5753 .0027-1.377 .0027-.1288 .0027-.0859 .002-.0431 0 0Z"/>
<path transform="matrix(1,0,0,1,707.9874,167.3115)" d="M0 0C-.562 4.1035-5.2983 2.3752-8.1221 2.5074-16.2158 2.5593-24.3711 2.8333-32.3469 4.2877-48.0955 7.036-63.4565 11.3568-78.4023 17.0139-90 21.5992-101.7393 26.2883-111.8918 33.6597-113.8091 34.911-115.7688 36.1719-117.927 36.9604-121.7849 38.2496-123.7258 32.2524-119.7307 31.1238-116.5103 29.6553-113.7146 27.4169-110.7444 25.5092-105.262 21.9581-99.2886 19.2617-93.3574 16.5465-72.5044 7.4894-50.6218 .7178-28.0923-2.55-21.4104-3.2631-14.6765-3.6503-7.9568-3.5842-5.1062-3.3551 .0012-4.1986 .0017-.1292 .0017-.0865 .0012-.0437 0 0Z"/>
<path transform="matrix(1,0,0,1,624.0743,226.2206)" d="M0 0C-.0188 .4865-.189 1.0011-.5571 1.5442-2.5452 4.2594-5.2417 2.1959-7.1541 .5762-9.3452-1.2277-11.5361-2.9419-13.8359-4.5946-19.7905-9.2695-25.783-13.9257-32.3657-17.7081-33.8911-18.6337-35.3926-19.6254-36.9275-20.5414-41.5598-23.4503-36.5874-28.8193-32.6538-25.0605-25.4241-20.8059-17.8923-15.7532-11.5835-10.5493-8.9626-8.5565-6.271-6.6488-3.7634-4.5096-2.2197-3.4294 .0022-1.9895 .0024-.1053 .0024-.0702 .0015-.0352 0 0Z"/>
<path transform="matrix(1,0,0,1,520.5454,278.1031)" d="M0 0C-.0377 .8217-.1085 1.6433-.1982 2.465-.5242 5.6855-2.243 8.6605-5.0763 10.2849-7.9426 11.9661-12.7876 13.5669-12.849 8.5519-11.8857 4.08-6.1011 7.3572-6.134 .4723-6.0585-1.4308-6.016-3.8627-6.6488-5.5957-7.0125-6.5685-7.3099-7.5933-6.8613-8.5896-5.9546-11.0356-2.073-11.0593-1.2136-8.5519-.299-6.2252 .0295-3.7758 .0295-1.3109 .0295-.8743 .0192-.437 0 0Z"/>
<path transform="matrix(1,0,0,1,561.8456,287.8451)" d="M0 0C-.0377 .8877-.4534 1.7614-1.2136 2.3091-5.7374 5.1094-7.8199 10.6249-8.5519 15.687-8.6133 16.9998-8.5802 18.3597-8.0371 19.5781-7.121 20.5839-6.8188 22.0903-7.5508 23.3275-8.9012 25.6461-12.2209 25.0464-13.2599 22.7561-17.0942 15.4131-12.5515 3.6549-6.5214-1.3601-4.9016-2.8995-2.2383-4.1886-.5902-1.9645-.1885-1.4259 .0028-.7798 .0028-.1346 .0028-.0897 .0018-.0449 0 0Z"/>
<path transform="matrix(1,0,0,1,571.9557,319.951)" d="M0 0C-.0142 .3401-.0896 .7131-.2361 1.1145-1.4354 3.655-4.061 3.2772-5.9829 1.7709-8.8729 .0803-11.7487-1.6385-14.6906-3.2394-25.8396-8.3394-37.3571-12.6459-48.0009-18.8179-58.1157-24.2531-68.4526-29.2963-78.8556-34.1366-82.8411-35.0621-81.5-41.0215-77.453-40.0818-61.0907-33.2063-46.0884-24.0925-30.066-16.6219-21.637-12.7734-12.8207-9.7229-4.9629-4.7174-2.9403-3.3535 .0027-2.4724 .0029-.1274 .0029-.0852 .002-.0431 0 0Z"/>
<path transform="matrix(1,0,0,1,494.8616,283.0237)" d="M0 0C-.0189 .4675-.1511 .9303-.4156 1.3694-1.1664 2.6444-2.687 3.1355-4.0281 2.701-4.0328 2.701-4.0375 2.701-4.0422 2.701-3.9902 2.72-3.9336 2.7389-3.8817 2.7531-3.7589 2.7766-3.6455 2.8049-3.5275 2.8286-3.7023 2.8003-3.877 2.7625-4.0516 2.7247-4.08 2.7247-4.1083 2.72-4.1367 2.7152-9.0052 5.6288-10.946 11.1396-12.8916 16.1593-14.1713 19.2523-15.7344 22.2321-16.5323 25.4998-17.661 29.3341-23.3795 27.8136-22.4304 23.9178-21.7362 21.3065-20.7965 18.7612-19.6207 16.3293-17.8451 12.4476-16.6127 8.3204-14.4027 4.6466-11.8197 .968-7.9049-4.113-2.8617-3.2489-1.1951-3.1295 .0029-1.6619 .0029-.131 .0029-.0874 .0018-.0437 0 0Z"/>
<path transform="matrix(1,0,0,1,571.9603,322.605)" d="M0 0C-.0142 .3447-.0896 .7084-.2361 1.0861-2.7812 8.2638-2.4695 16.3812-6.7903 22.9497-9.0947 26.1844-11.4983 30.7744-15.8239 31.2844-19.4458 31.2703-19.951 25.9294-16.4141 25.24-8.0747 17.9821-9.2458 8.0937-5.8647-1.2655-4.4412-4.5129 .0032-3.0895 .0032-.134 .0032-.0897 .0022-.045 0 0Z"/>
<path transform="matrix(1,0,0,1,557.0006,351.3441)" d="M0 0C-.0236 .5573-.2267 1.1805-.661 1.8842-2.701 4.4578-5.7233 1.922-8.1221 1.3269-16.6646-1.5488-24.3617-6.2568-32.3516-10.318-40.3651-14.0768-48.1426-18.2795-55.9861-22.3737-62.158-25.0511-68.1693-27.9836-73.4204-32.2383-76.6787-34.7457-89.9857-40.1243-83.1102-44.8701-81.2308-45.6351-79.7245-44.3649-78.7848-42.8632-76.5181-41.1774-73.9917-39.8646-71.6118-38.3298-68.2024-36.2285-65.2274-33.4661-61.6055-31.7-57.483-29.7639-53.2944-27.9695-49.3042-25.7689-38.1693-19.7528-26.6708-14.464-15.5784-8.3771-12.1879-6.715-8.6558-5.3644-5.1094-4.061-2.8544-3.4208 .0026-2.3197 .0027-.1178 .0027-.0787 .0018-.0397 0 0Z"/>
<path transform="matrix(1,0,0,1,234.4854,582.8914)" d="M0 0C-.1417 3.1827-.8453 5.5721-2.7814 5.6949-5.7657 6.0632-6.7716 2.9796-6.2002 .5383-6.12-2.4462-6.3844-5.4305-6.5638-8.4008-7.2013-18.0482-7.6453-27.7003-8.2307-37.3478-10.658-76.4001-11.2954-115.5612-11.4561-154.6797-11.286-170.6406-10.8563-186.5826-11.201-202.5342-11.2294-211.5913-11.3947-220.6626-10.9554-229.7056-10.5399-233.5636-4.4105-232.978-4.8922-228.9972-5.3502-177.2045-5.6666-125.4069-3.9336-73.6282-3.282-54.3571-1.9503-35.1283-.9209-15.8712-1.0436-14.45-.7319-11.7111-.4297-8.6464-.1964-6.2426 .0269-3.64 .0269-1.3185 .0269-.8672 .0184-.4266 0 0Z"/>
<path transform="matrix(1,0,0,1,493.3835,349.7999)" d="M0 0C0 .0331 0 .0662-.0048 .0992-.0992 1.6764-1.582 3.1686-3.2347 2.9703-16.0554 1.7001-28.9612 1.0814-41.8339 .5997-75.3093-.406-108.4354 1.1003-141.807 2.0967-173.4503 2.2998-205.0133 4.897-236.6566 4.7931-244.9158 4.8545-253.1559 5.4022-261.4151 5.3267-264.6969 5.2417-271.2041 6.7905-270.1322 1.464-268.8335-2.3846-260.225-.1747-257.1792-.7791-242.0635-1.3741-226.9384-1.2607-211.818-1.5819-185.5533-2.8947-159.2743-3.806-132.9766-4.1602-102.391-5.5438-71.8716-6.2758-41.3333-5.4966-34.7694-5.3738-28.2197-4.9158-21.6654-4.5096-15.3944-4.1412-9.1139-3.8958-2.8759-3.126-1.3154-3.0248 .0026-1.6897 .0026-.1223 .0026-.0817 .0017-.0408 0 0Z"/>
<path transform="matrix(1,0,0,1,502.4642,587.2782)" d="M0 0C-.0614 1.3741-.9303 2.6823-2.7341 2.7908-29.1736 3.9856-55.613 4.7552-82.062 3.5039-99.619 3.1309-117.0675 .7981-134.6293 .7415-165.38 .4723-195.7531 2.6869-226.3859 4.5002-241.1852 4.5096-256.0836 7.4988-270.8074 5.7799-276.6156 5.3739-275.1045-3.1969-269.6363-.2219-264.0406 .7839-258.3361 .17-252.7167-.2738-242.9701-1.0105-233.1906-1.1569-223.4392-1.7849-196.8062-3.5179-170.1448-5.0432-143.4503-5.4258-117.0533-5.6335-90.8121-2.158-64.4105-2.1202-52.5531-1.6433-40.6863-1.87-28.8336-2.3752-20.2865-2.7152-11.7252-2.9325-3.178-3.3008-1.1243-3.4609 .0035-1.791 .0035-.1583 .0035-.1055 .0023-.0527 0 0Z"/>
<path transform="matrix(1,0,0,1,506.7142,580.9741)" d="M0 0C-.1134 1.4874-.3116 2.975-.3495 4.4624-.6376 8.3252-6.7244 8.0371-6.4316 3.9761-5.7659-5.6855-6.1766-15.3612-6.5828-25.0464-7.0078-34.9866-7.428-44.9315-6.6819-54.8765-7.225-76.5323-8.3064-98.6558-7.5272-120.2502-7.8766-135.9231-8.6274-151.5865-8.84-167.2595-8.8635-174.3049-8.6039-181.3694-8.3441-188.4243-7.8341-202.2886-7.3241-216.1387-8.9486-229.8661-9.6381-229.8519-10.3274-229.7716-11.0216-229.6914-13.6377-229.3844-15.2762-232.926-13.4677-234.7725-11.3239-236.5811-7.7067-236.1797-5.3031-235.0889-2.9277-233.7383-3.0459-230.7964-2.55-228.4589-1.1901-212.9938-1.9692-197.2595-2.4366-181.7283-2.8853-167.3492-2.4745-153.0693-2.0636-138.7942-1.6622-125.0055-1.2609-111.2167-1.6387-97.3477-1.7142-89.7781-1.4355-82.2131-1.157-74.6528-.765-64.1318-.3778-53.6156-.9351-43.0898-1.1334-36.153-.7887-29.2208-.444-22.2935-.1693-16.752 .1078-11.21 .108-5.6704 .108-3.7798 .0757-1.89 0 0Z"/>
<path transform="matrix(1,0,0,1,515.4313,335.4398)" d="M0 0C-.0046 .0803-.0142 .1559-.0236 .2314-2.6632 6.6442-14.5773 12.0604-20.3715 16.1404-31.9691 23.2992-44.2467 29.3767-56.3213 35.5249-56.803 45.0071-58.1205 54.4137-59.0271 63.858-59.4286 65.4447-59.3955 67.2155-59.3672 68.9816-59.3152 71.8102-59.2633 74.634-60.9963 76.7118-69.8834 82.7419-80.6688 84.8765-90.2549 89.4286-90.1179 94.7363-90.8594 100.0157-91.2041 105.3046-91.3315 106.9668-92.8379 108.2371-94.4907 108.1049-96.153 107.9725-97.4185 106.4757-97.2909 104.8181-96.9557 100.4454-96.4834 96.068-96.3276 91.6858-96.3229 91.2513-96.337 90.8027-96.3512 90.3447-96.4174 88.5975-96.4788 86.7748-95.114 85.495-86.2174 79.5215-74.8464 78.2465-65.676 72.5232-65.3596 60.2313-63.0741 48.0907-62.4554 35.8177-62.5168 33.8439-61.7755 32.0117-60.1888 30.7886-42.3438 21.1412-23.252 12.5138-7.173-.118-6.9911-4.1509 .0032-4.1833 .0035-.157 .0035-.1052 .0024-.0531 0 0Z"/>
<path transform="matrix(1,0,0,1,482.3147,373.0897)" d="M0 0C-.1322 2.0542-.255 3.8533-.1228 4.9064-.3447 9.8835-.4817 14.8701-.5714 19.8568-.5714 19.8804-.5714 19.8993-.5714 19.9229-.6422 21.5474-2.2949 22.7798-3.858 22.657-5.5155 22.5485-6.781 21.0043-6.6582 19.3704-6.578 12.561-6.238 5.7659-6.0444-1.0436-5.7941-2.2194-5.9689-3.7777-6.1388-5.3833-6.493-8.7076-6.8424-12.2209-3.3857-12.8159-.4304-12.9658 .2187-9.2932 .2187-5.1637 .2187-3.4406 .1057-1.6378 0 0Z"/>
<path transform="matrix(1,0,0,1,195.8344,627.1476)" d="M0 0C-.0851 1.9219-.7744 3.4755-2.9797 3.9052-6.441 3.7257-6.4316 .4911-6.4222-2.5784-6.4175-3.9336-6.4127-5.2605-6.7056-6.2711-10.1527-26.0712-9.7183-46.1829-10.5447-66.1908-11.6166-99.5482-12.136-132.9246-13.2646-166.2773-14.3507-182.649-13.7841-199.0681-14.4263-215.4446-16.778-234.5269-16.3529-253.6565-17.3965-272.8002-18.0718-283.3967-17.3068-294.0216-17.0093-304.6276-16.7166-305.827-16.7874-307.6167-16.8535-309.5056-16.9904-313.6422-17.1132-318.2511-13.3496-318.1755-9.8174-317.6892-10.2708-313.0331-10.6958-309.0145-10.8799-307.239-11.0641-305.5862-10.8894-304.4766-11.5221-291.2072-11.8999-278.3062-10.8563-265.1172-10.5305-249.0287-10.3369-233.3038-8.4669-217.3571-7.8907-187.494-6.7339-157.6216-6.1577-127.749-5.3125-96.1766-4.3822-64.5994-3.4-33.0316-2.975-24.579-2.0873-16.1735-.7603-7.8199-.7933-6.7764-.5856-5.4872-.3778-4.1461-.1869-2.8864 .0077-1.5846 .0078-.3984 .0078-.264 .0052-.1313 0 0Z"/>
<path transform="matrix(1,0,0,1,475.5856,310.4453)" d="M0 0C-.0614 1.4828-1.0813 2.8994-3.0835 2.8428-18.8793 2.4886-34.6797 2.4556-50.4941 2.2053-60.1274 2.2101-69.7701 2.8003-79.3845 2.0117-107.0706 2.007-134.7992 2.2336-162.4995 2.8569-187.9285 1.9645-213.3527 2.8145-238.791 2.942-253.9822 2.8665-269.1783 1.6718-284.3742 2.3328-287.7741 1.9645-291.925 3.537-294.763 1.2703-296.5291-.6233-295.084-4.0186-292.3924-3.8437-290.0974-3.4755-287.727-3.806-285.3942-3.7305-259.0728-4.3633-232.7466-2.3705-206.411-3.5179-191.1962-4.1885-175.9814-3.2819-160.7617-3.2725-135.9279-4.2074-111.0656-3.4188-86.2363-4.335-66.8849-3.4282-47.5004-3.7966-28.13-3.7163-19.6962-4.0515-11.2954-2.9702-2.8663-3.2583-.9644-3.167 .0035-1.6528 .0035-.1581 .0035-.1053 .0024-.0526 0 0Z"/>
<path transform="matrix(1,0,0,1,564.8584,631.6761)" d="M0 0C-.0851 1.9219-.6848 3.5227-3.0505 3.7542-4.7269 3.7729-6.1011 2.3988-6.1342 .7366-6.257-3.5133-6.1389-7.7633-6.3986-12.0085-7.428-19.6584-8.0939-27.3604-8.3489-35.0763-10.5116-74.0201-8.1505-113.37-11.9377-152.1958-13.3921-177.3036-12.9482-202.4822-13.2646-227.623-13.8644-243.7634-13.09-259.8613-12.2163-275.9687-12.2163-279.8173-6.1862-280.1243-6.1106-276.0396-7.0739-259.2617-7.7114-242.4979-7.14-225.687-6.9133-201.7975-7.1636-177.8278-5.9689-153.9761-2.7343-121.0199-3.7589-88.0167-2.9703-54.9708-2.8475-43.9729-2.2336-32.8097-1.4167-21.9346-.8689-16.3718 .0991-10.8422-.1134-5.2369-.1984-4.4247-.1323-3.4614-.0709-2.465-.0276-1.8383 .0128-1.1949 .0128-.5729 .0128-.3795 .0089-.1882 0 0Z"/>
<path transform="matrix(1,0,0,1,563.0356,634.4622)" d="M0 0C-.0472 1.072-.7556 2.1439-2.4272 2.7484-8.637 3.9478-15.0732 3.1356-21.3679 3.027-34.8875 2.4414-48.3268 1.1522-61.7803-.2786-73.274-1.6906-84.8434-.9255-96.3796-1.1379-104.0815-1.4639-111.7645-2.1769-119.4852-2.2146-134.8701-2.7814-150.1842-4.401-165.5737-4.8969-181.7944-5.6571-198.0293-4.7836-214.2594-5.1849-227.5004-5.0763-240.7319-6.0349-253.9682-5.879-266.6425-5.3265-279.3216-5.1754-292.0005-5.2557-314.9409-3.7446-337.9002-2.7577-360.8026-.8641-364.623-1.1427-372.0368 2.3942-372.49-3.1874-372.1407-7.683-364.7268-6.0491-361.5818-6.9274-340.7948-8.8068-320.0739-9.4019-299.3152-10.9696-272.9986-11.6874-246.6535-12.3296-220.3368-11.2717-201.1836-10.9224-182.2808-11.8243-163.2174-10.8751-147.8088-10.4171-132.476-8.6415-117.0581-8.2543-101.6166-7.3666-86.1703-7.1351-70.71-7.1447-58.2056-6.4694-45.8193-4.283-33.3103-3.825-23.899-3.3622-14.45-2.276-5.0339-2.9465-2.3634-4.1566 .0022-2.1572 .0023-.1133 .0023-.0753 .0016-.0378 0 0Z"/>
<path transform="matrix(1,0,0,1,450.3503,475.0227)" d="M0 0C-.0283 .6847-.3353 1.3835-1.02 1.9833-10.4408 11.1112-21.3962 18.2983-33.7352 22.8364-45.8524 27.9741-58.2811 32.328-70.9554 35.879-103.0049 45.3989-137.2832 46.5511-170.2581 41.8242-176.7701 40.8468-182.9513 38.5282-189.1798 36.4977-198.6431 33.7163-207.96 30.5336-216.8424 26.2174-223.4109 23.2567-230.2912 20.1117-235.8539 15.5311-239.9197 11.9565-247.0077 9.2837-247.4893 3.2819-247.0785 .8546-243.8533-.0851-242.2242 1.7755-240.935 4.4199-238.4558 6.0112-236.1608 7.7538-229.7481 12.8962-222.7641 17.0659-215.1896 20.2581-201.8212 26.7369-187.4563 30.7555-173.2851 35.0526-160.7902 37.1776-148.0497 38.4243-135.3708 38.5942-121.9219 37.952-108.0435 37.5223-94.8071 35.3644-73.0238 31.1002-52.0054 24.1681-31.7189 15.347-25.0182 12.5892-18.6998 9.0004-13.0804 4.4058-10.3369 2.2146-7.8105-.2314-5.1425-2.517-2.9969-4.537 .0023-2.4103 .0024-.1162 .0024-.0774 .0017-.0388 0 0Z"/>
<path transform="matrix(1,0,0,1,306.1587,478.8477)" d="M0 0C-.0756 1.7189-.7178 3.1072-2.7909 3.5369-7.8199 3.5793-5.9216-3.8534-6.8425-7.1683-6.7858-8.1505-6.9889-9.416-7.1919-10.7383-7.7067-14.0815-8.2072-17.7697-4.3114-18.0813 .085-17.7601-1.5253-10.3558-.7131-7.1967-.7792-6.2003-.5667-4.9584-.3542-3.6692-.173-2.5609 .0082-1.415 .0082-.3726 .0082-.2468 .0056-.1226 0 0Z"/>
<path transform="matrix(1,0,0,1,326.4923,478.2856)" d="M0 0C-.066 1.4922-1.1995 2.8192-2.7672 2.9608-6.4977 3.0553-6.4742-1.3411-6.4552-5.1-6.4458-6.578-6.4363-7.9568-6.6536-8.9249-6.526-9.9637-6.6961-11.2529-6.8614-12.5751-7.1919-15.2526-7.5177-18.0812-5.4069-19.3798-3.4424-20.3998-.8783-18.9548-.9491-16.6787-.6941-11.2388-.3872-5.7988-.0094-.3635-.0024-.2737 .0018-.1838 .0018-.0957 .0018-.0636 .0013-.0315 0 0Z"/>
<path transform="matrix(1,0,0,1,625.5619,585.2808)" d="M0 0C-.0237 .5383-.2173 1.105-.6375 1.6527-14.5962 15.9703-29.9009 29.0555-45.5737 41.4843-49.9512 44.2515-58.6636 53.4362-63.6124 52.2981-66.5496 51.2025-65.9027 46.5701-62.7529 46.3765-47.5996 36.2805-33.5701 24.3381-20.3525 11.829-15.3518 7.291-9.9448 3.1497-5.5344-2.0022-3.6365-4.5792 .0024-2.6244 .0024-.1146 .0024-.0764 .0017-.0383 0 0Z"/>
<path transform="matrix(1,0,0,1,624.7308,583.0046)" d="M0 0C0 .0756 0 .1464-.0049 .2219-.1135 2.7058-2.8901 4.4719-5.0293 2.8853-6.781 1.4639-7.1636-1.6622-5.9783-3.5416-6.1626-35.166-9.4067-66.7007-8.3818-98.3535-8.0229-112.2272-9.9734-125.9688-10.1104-139.8142-11.1018-166.6315-11.8054-193.4628-12.835-220.2706-13.3779-224.1333-7.428-225.1958-6.8-221.1962-6.0869-202.5813-5.2559-183.9618-5.0293-165.3234-4.0376-149.8204-4.354-134.2656-2.7815-118.8099-2.1724-107.3965-2.262-95.9688-2.3469-84.5458-2.3848-79.7953-2.4177-75.0496-2.4036-70.3037-1.938-49.4769 .1038-28.6851 .1038-7.8566 .104-5.2377 .0715-2.6204 0 0Z"/>
<path transform="matrix(1,0,0,1,616.2355,360.6704)" d="M0 0C-.0046 .1464-.0283 .2928-.0708 .4392-1.2278 4.1461-5.6287 2.6208-7.2061 .0708-8.7124-1.4072-10.5398-2.5216-12.1736-3.8533-19.4648-9.3829-26.4771-14.7946-34.009-19.9135-37.5034-22.6805-48.3879-28.2811-49.4929-31.9125-49.9888-34.7836-46.1733-36.644-44.2466-34.453-34.2168-26.7463-22.9214-20.4847-13.3022-12.2729-10.6597-9.6539 .0017-3.9479 .002-.0906 .002-.0602 .0015-.03 0 0Z"/>
<path transform="matrix(1,0,0,1,269.8026,643.8357)" d="M0 0C-.0614 1.3883-.6422 2.5217-2.5074 2.9089-7.4232 3.1167-6.3607-3.858-6.9132-7.1635-6.8566-7.9191-6.918-8.8257-6.9746-9.7795-7.1588-12.7026-7.3193-16.0223-3.9241-16.3434-.4014-16.0648-.6139-12.7262-.8169-9.553-.9114-8.0985-1.0011-6.6724-.7225-5.5957-.6954-4.0518 .0051-1.98 .0051-.2516 .0051-.1669 .0035-.083 0 0Z"/>
<path transform="matrix(1,0,0,1,527.1517,647.8732)" d="M0 0C-.066 1.5488-1.3931 2.9702-2.9938 2.9325-13.1182 2.5547-23.0442 4.7836-33.1401 4.963-49.9558 5.5627-66.6771 7.2344-83.4974 6.9321-101.8667 7.4894-120.1841 5.9216-138.5439 5.9358-150.0188 6.2333-161.4795 5.5958-172.9119 4.6655-183.9004 4.4578-194.8652 3.8014-205.8444 3.4802-221.182 4.1792-236.5149 4.8781-251.7864 2.72-254.2325 2.5122-256.6503 1.922-259.1057 1.7944-262.9779 1.8323-263.2708-4.2074-259.205-4.3113-257.5238-4.335-255.8616-3.9855-254.2089-3.74-247.9473-2.8947-241.6337-2.4791-235.3485-1.9125-222.6601-1.3317-209.9951-3.2535-197.3208-2.2949-177.6813-1.9597-158.1031 .1747-138.4495-.17-116.8502 .1511-95.2793 1.2986-73.6611 .8358-57.2563 .3212-40.8751-.8972-24.4703-1.6244-19.0303-2.262-13.614-3.1592-8.1127-3.1261-5.2227-3.0175-.3258-4.2971 .0048-.17 .0048-.1133 .0048-.0566 0 0Z"/>
<path transform="matrix(1,0,0,1,531.1515,639.0427)" d="M0 0C-.0283 .5525-.052 1.0767-.0425 1.5394-.4958 3.9099-.3164 6.833-2.0494 8.6368-4.0186 10.351-7.4421 8.4952-6.9841 5.8885-6.238 2.8711-5.9358-.1842-6.1389-3.2914-6.1531-4.9536-4.8073-6.3655-3.1356-6.3892-.387-6.3019 .0515-4.0289 .0515-1.6969 .0515-1.1243 .025-.5483 0 0Z"/>
<path transform="matrix(1,0,0,1,620.443,668.4807)" d="M0 0C0 .0189 0 .0378 0 .0614-.6187 5.3361-9.9639 1.7944-13.4958 2.0211-21.1648 1.0579-28.9187 1.275-36.592 .3022-52.553-1.1144-68.5518 .2645-84.4938-.713-107.6938-3.093-131.0214-2.3799-154.2828-3.2157-184.0089-4.4718-213.7303-4.9346-243.4706-5.3973-271.1661-6.9321-298.7531-5.8932-326.4251-6.0349-351.9296-7.173-377.4718-7.2627-402.9716-6.1671-429.3449-6.8046-455.756-5.7893-482.0963-4.4624-485.8882-4.7551-493.0282-3.2583-497.1411-4.4152-497.0231-4.4152-496.9051-4.4152-496.7918-4.4152-496.7965-4.4152-496.7965-4.4152-496.8012-4.4152-496.6737-4.4293-496.5509-4.4435-496.4234-4.4624-496.4092-4.4672-496.3951-4.4766-496.3809-4.486-496.6548-4.4341-496.9334-4.4152-497.2167-4.4341-498.3454-4.7646-499.2426-5.2982-499.762-6.134-500.9331-8.4763-498.454-11.286-495.9795-10.3462-492.9668-10.011-489.9068-10.3604-486.8799-10.403-459.5338-11.5315-432.1404-13.0946-404.766-12.2445-379.4174-13.2268-354.0215-13.4346-328.6775-12.1831-302.2381-11.7629-275.8506-13.1796-249.4347-11.692-226.6974-10.6343-203.913-11.574-181.1946-10.2377-156.9131-8.9154-132.5939-9.1515-108.2936-8.3488-93.4187-7.8387-78.5486-6.0822-63.6549-6.3655-47.4578-6.9226-31.6433-5.4493-15.5408-4.3302-11.3096-3.9335-7.0879-3.3622-2.8428-3.1874-1.2432-3.146 .0029-1.6687 .0029-.1268 .0029-.0845 .002-.0424 0 0Z"/>
<path transform="matrix(1,0,0,1,123.264,664.0702)" d="M0 0C-.1274-.0188-.255-.0377-.3872-.0566L-.3824-.0519C-.458-.0754-.5383-.0944-.6139-.1133-.4203-.066-.2313-.0377-.0377-.0236-.0142-.0188 .0142-.0094 .0378-.0046 .0236-.0046 .0142-.0046 0 0Z"/>
<path transform="matrix(1,0,0,1,214.572,633.2297)" d="M0 0C-.0048 .1888-.0377 .3824-.0897 .5808-.392 2.073-1.8558 2.7341-2.9467 3.5841-10.3416 9.4302-17.472 15.6256-24.5081 21.8872-26.8928 23.9792-29.3247 26.005-31.8652 27.9033-32.9796 28.7156-33.7352 29.4711-35.1094 29.3672-37.7018 29.2585-38.9343 25.5847-36.8235 23.9934-28.9138 18.1284-21.9109 11.1538-14.2562 4.9677-11.1963 2.2808-8.0608-.307-4.7222-2.6492-2.7743-4.0543 .0026-2.3392 .0028-.1213 .0028-.0809 .0018-.0408 0 0Z"/>
<path transform="matrix(1,0,0,1,631.4503,630.302)" d="M0 0C-6.3135-.2219-12.6033-.6422-18.8979-1.2089-29.4426-1.6292-40.0156-2.8286-50.5603-2.1533-53.1763-2.295-54.3757-5.8933-52.2839-7.5319-49.2759-9.1185-45.4792-8.2827-42.1689-8.5-35.7988-8.193-29.4333-7.7964-23.063-7.598-17.6089-7.343-12.1736-6.6914-6.7244-6.375-3.4236-5.7847 3.1875-7.7964 3.3008-2.7909 3.1545-1.1145 1.6624 .1085 0 0Z"/>
<path transform="matrix(1,0,0,1,612.5948,662.4789)" d="M0 0C-.0474 1.1002-.6707 2.1675-2.0496 2.6538-3.1545 3.0599-4.2595 3.4661-5.3645 3.8722-9.1565 5.0905-11.0264-.6281-7.2627-1.9314-6.1577-2.3375-5.0527-2.7435-3.9526-3.1497-1.6177-3.9004 .0029-2.0057 .0029-.1418 .0029-.0945 .002-.0474 0 0Z"/>
<path transform="matrix(1,0,0,1,641.9005,629.3575)" d="M0 0C-.0234 .5146-.1746 1.0908-.4958 1.733-5.0007 7.6357-11.031 12.0179-15.9656 17.5193-19.8096 20.9806-37.645 45.8665-42.0793 37.6688-43.2031 35.8177-41.7817 33.23-39.6096 33.1686-38.3865 32.4413-37.2673 31.563-36.2095 30.6139-26.855 21.1365-18.4495 10.5541-8.5234 1.6858-12.0793 .9349-11.1206-4.7458-7.5129-4.2925-4.7021-4.0878 .0027-3.1808 .0032-.1356 .0032-.0907 .0022-.0458 0 0Z"/>
<path transform="matrix(1,0,0,1,620.7074,671.7107)" d="M0 0C-.0234 .5479-.1936 1.0908-.5193 1.5631-10.3936 18.2843-19.46 35.525-29.4946 52.1754-41.7251 71.9282-54.1774 91.7236-65.1376 112.1659-66.507 115.8491-72.2161 113.9131-70.8892 110.1165-58.1393 85.7123-42.9575 62.8806-28.843 39.2791-22.4302 26.6851-14.6199 14.8701-8.1787 2.3044-6.6912-.1085-4.845-4.8213-1.3174-2.6821-.4614-2.0966 .0034-1.1241 .0034-.1422 .0034-.0947 .0022-.0474 0 0Z"/>
<path transform="matrix(1,0,0,1,624.15,728.2399)" d="M0 0C-.0803 1.8842-.7793 3.3339-2.8618 3.5936-5.9358 3.74-6.2288 .4865-6.3562-1.8322-6.7385-4.7788-7.1826-7.7255-7.428-10.6815-8.0608-19.819-8.8022-28.9563-8.873-38.1221-8.9487-42.7828-8.925-47.4484-9.4067-52.0903-10.8328-54.8953-7.5698-58.0355-4.897-56.1749-2.6917-54.3663-3.4001-50.9995-3.0034-48.459-2.6587-39.1421-2.824-29.7969-1.988-20.4989-1.6528-16.8912-1.4875-12.5515-1.157-9.1373-1.1995-8.0654-.8879-6.5497-.5762-4.9393-.2839-3.4215 .0085-1.8132 .0085-.4077 .0085-.2697 .0059-.1338 0 0Z"/>
<path transform="matrix(1,0,0,1,553.4921,799.5447)" d="M0 0C-.6516-.0754-1.308-.1416-1.9502-.0944-1.5536-.2361-1.1239-.3021-.6942-.269-.3447-.2407-.0142-.1558 .2833-.0236 .1888-.0188 .0945-.0046 0 0Z"/>
<path transform="matrix(1,0,0,1,621.5717,730.313)" d="M0 0C-.0283 .6091-.2693 1.2372-.8027 1.818-9.416 12.0273-20.0078 20.4329-28.6777 30.6138-38.3582 42.0226-48.27 53.2566-58.0166 64.6088-58.588 65.0574-59.1641 65.4966-59.7402 65.9357-60.7224 66.6865-61.7424 67.3995-62.6302 68.2543V68.259C-62.7152 68.3015-62.8002 68.344-62.8853 68.3865-63.348 68.4479-63.806 68.5281-64.2546 68.6038-65.4115 68.8068-66.5685 69.0193-67.7255 69.1987-67.8481 69.2129-67.9663 69.2224-68.0796 69.2317-68.5565 69.175-69.0382 69.1279-69.5151 69.1232-67.8387 65.8884-64.9487 63.2441-62.6255 60.4626-58.3755 56.0381-54.527 51.2544-50.499 46.6267-44.0154 39.6521-38.344 31.9739-31.8652 24.985-25.5564 18.0435-18.7942 11.6495-12.1265 5.1235-9.7844 2.7435-7.3572 .4486-5.3596-2.2384-3.356-4.5953 .0024-2.5266 .0024-.1143 .0024-.0763 .0017-.0382 0 0Z"/>
<path transform="matrix(1,0,0,1,127.2307,665.1233)" d="M0 0C-.0189 .51-.1936 1.0436-.5667 1.5725-9.4963 15.6021-14.8513 31.5771-23.4645 45.8193-32.7437 65.1425-44.4924 82.6899-54.3334 101.5929-55.6792 106.2537-62.243 103.4015-59.8914 99.0807-48.6857 78.1663-36.1246 57.9789-25.4479 36.7668-18.2607 24.1823-13.6708 10.2094-5.6052-1.87-3.8419-4.5684 .0023-2.692 .0026-.1161 .0026-.0774 .0017-.0389 0 0Z"/>
<path transform="matrix(1,0,0,1,553.8085,781.1614)" d="M0 0C-.0472 1.1144-.6422 2.1816-1.8228 2.6018-8.9957 3.9619-16.1451 1.001-23.2662 .4722-37.4515 1.223-51.5426-.9822-65.6855-1.8228-95.0952-3.0411-124.5049-2.7673-153.9052-4.0469-187.2107-5.813-220.5964-2.5879-253.8689-5.3645-299.6032-5.6997-345.295-7.1825-390.9584-9.3831-417.3885-11.8054-443.9318-10.4456-470.4422-11.0499-474.508-11.2104-478.5501-11.9094-482.6206-11.7488-483.7019-11.3145-484.9722-11.2058-485.9876-11.999-491.8289-20.8674-474.1302-17.085-469.9936-17.1321-449.9337-16.7166-429.855-17.1982-409.8094-16.8818-385.5894-14.8796-361.2229-14.2751-337.0124-13.0898-308.1692-12.2211-279.3168-11.9661-250.4737-11.2812-231.4858-9.7183-212.4224-10.4172-193.392-10.5258-171.4952-11.135-149.5702-10.2378-127.6971-9.1187-99.7277-8.9534-71.7015-8.9202-43.8313-6.1908-37.2627-5.3362-30.6801-5.4495-24.0784-5.6477-19.0776-5.7186-14.3318-3.8816-9.3829-3.4993-6.5497-2.9797-4.5286-3.4189-1.8936-3.0553-.6512-2.6201 .0034-1.3793 .0034-.1526 .0034-.1016 .0022-.0508 0 0Z"/>
<path transform="matrix(1,0,0,1,74.177,779.1827)" d="M0 0C-.0331 .7319-.1984 1.4497-.5808 2.1202-2.0588 4.2689-5.7988 3.348-6.0443 .7272-6.1625-.5194-6.3749-1.733-6.6205-2.9513-6.6205-4.0895-7.0643-5.3597-7.5129-6.6252-8.2638-8.7501-9.0146-10.8799-7.6263-12.4052-3.4991-15.7438-1.478-9.4916-1.0956-6.2616-.8745-4.3668 .006-2.2523 .006-.2762 .006-.184 .004-.0918 0 0Z"/>
<path transform="matrix(1,0,0,1,550.5691,797.2828)" d="M0 0C-1.3223 5.3124-7.7302 .9774-11.3711 1.4261-31.9314 1.4591-52.3453-2.1156-72.8821-3.027-102.1643-3.093-131.4135-4.8497-160.7004-4.2972-180.2124-2.8711-199.7009-5.0386-219.2035-4.3302-265.5423-2.7294-311.829-6.5732-357.9032-10.639-381.9014-11.7865-405.9088-11.1586-429.907-11.4324-445.3362-12.7931-460.7033-13.0038-476.0526-13.7913-476.0522-13.7924-476.0522-13.7935-476.0522-13.7935-476.0672-13.7935-476.0821-13.7935-476.0963-13.7935-476.1273-13.795-476.1581-13.7965-476.189-13.7982-480.0434-13.9014-480.0194-19.6244-476.3478-19.8712-476.3631-19.8695-476.378-19.868-476.3921-19.8662-460.2659-19.2003-444.0877-18.7706-427.9709-17.4248-407.8356-17.4767-387.7238-17.6893-367.5884-17.0895-342.679-16.2018-317.9206-12.8538-293.0253-11.5504-275.3076-11.3899-257.6137-9.5719-239.9055-10.1857-230.0692-9.7985-220.2612-10.4738-210.4343-10.6721-198.3693-10.639-186.323-9.5199-174.2483-9.9166-137.7412-11.3333-101.168-9.6002-64.6749-8.6368-50.4895-7.4091-36.3042-6.1483-22.1234-4.8402-16.5861-4.0383-.0007-6.4491 0-.022 0-.0145 0-.0074 0 0Z"/>
<path transform="matrix(1,0,0,1,74.2998,777.4072)" d="M0 0C.0472-.0048 .0897-.0095 .137-.0142 .1936-.0095 .2456-.0048 .2975-.0048 .1984-.0048 .0991-.0048 0 0Z"/>
<path transform="matrix(1,0,0,1,555.5321,789.3448)" d="M0 0C-.1417 1.3505-.2834 2.6633-.104 3.6974-.0378 4.8356 .2172 6.257 .1605 7.5319 .118 8.5236-.1134 9.4254-.7792 10.0204-1.0814 10.0724-1.3837 10.1244-1.6859 10.1715-1.8086 10.181-1.9268 10.1906-2.04 10.1998-2.7909 10.1102-3.5511 10.0394-4.2925 10.1385-4.3728 10.1479-4.4531 10.1669-4.5333 10.1857-6.2097 8.9911-6.1908 6.0728-6.1672 3.6644-6.1625 2.9562-6.1577 2.295-6.1908 1.7284-6.1058 1.0342-6.12 .1888-6.1294-.6895-6.1625-3.5604-6.172-6.8472-2.7861-6.9274-.3585-6.5511 .1904-4.8007 .1904-2.7152 .1904-1.8434 .0945-.9132 0 0Z"/>
<path transform="matrix(1,0,0,1,769.3427,729.9918)" d="M0 0C-.0613 1.3931-.2219 2.7909-.51 4.1838-.8357 5.3691-1.2515 6.526-1.5867 7.7019-2.6963 11.541-8.4526 10.0111-7.4941 6.1483-6.6111 3.5179-5.7373 .8595-6.1624-1.955-6.3372-8.991-9.3169-15.5927-12.9292-21.4387-16.792-26.4159-22.6333-29.5986-28.5078-31.6244-34.8542-33.2583-41.0215-35.4966-47.406-36.9415-52.416-37.8293-58.0874-36.7716-62.9514-36.5402-88.248-35.5863-117.823-8.3535-126.6204 14.5065-130.1951 25.5328-132.9434 36.5732-134.1899 48.0387-134.3694 49.1343-134.1948 50.6737-134.0247 52.2792-133.647 55.887-133.2834 59.8772-136.9099 60.1888-140.2156 59.9623-140.1636 56.8785-140.1116 54.017-140.0928 52.9025-140.074 51.8212-140.2485 50.9523-140.5037 42.8773-138.1946 34.3539-136.4143 26.6566-135.1108 20.4329-133.1511 14.2941-130.738 8.4054-120.0659-13.8076-93.6975-38.278-68.7786-42.051-61.9456-42.7074-55.0747-43.6802-48.218-43.2457-41.3757-42.2917-34.9961-39.4821-28.281-37.9426-19.9653-35.421-11.5598-30.8641-6.885-23.2944-3.0615-16.6279 .0278-9.0135 .0281-1.2708 .0281-.8472 .0188-.4243 0 0Z"/>
<path transform="matrix(1,0,0,1,768.6627,737.5143)" d="M0 0C-.0142 .3495-.0757 .7272-.1936 1.1239-1.5488 5.4022-4.6797 8.8304-7.1306 12.5043-13.8975 23.0253-22.5815 32.8097-32.1204 40.8137-38.3867 47.1886-45.8572 51.8495-53.729 55.9436-58.7251 59.1736-64.4814 60.6658-70.1526 62.1957-76.8582 64.6843-83.8093 66.1246-90.8877 66.9888-101.0923 68.9437-111.9722 68.8917-121.6575 64.8402-127.2815 61.8794-134.0911 59.6788-137.8782 54.3239-139.7529 52.4965-138.3928 49.1012-135.7532 49.1154-133.8406 48.9547-133.0852 50.7303-132.0698 51.9203-126.9133 55.8822-120.8499 59.0225-114.5789 60.7792-106.5371 62.8993-98.1929 62.2524-90.0945 60.6847-80.8579 59.7638-72.2117 56.3402-63.3196 53.8754-56.9023 51.0892-50.8484 47.4296-44.8892 43.7699-41.7017 41.3096-38.7266 38.5754-35.7327 35.8838-23.8423 25.8822-14.1335 13.2976-6.2476 .0236-6.4553-2.6823-4.6938-3.7542-2.9893-3.5416-1.4727-3.3492 .0039-2.1517 .0042-.1827 .0042-.1224 .0027-.0618 0 0Z"/>
<path transform="matrix(1,0,0,1,767.9921,720.1461)" d="M0 0C-.0093 .2313-.0471 .4769-.1133 .7366-2.6492 10.1573-10.4265 16.8723-16.74 23.9037-32.2383 41.6732-52.6238 55.8585-75.0164 63.2488-83.7004 66.5306-93.0647 67.3099-102.2727 67.4703-106.6077 68.2213-110.9521 68.0702-115.2871 67.4091-121.7046 67.4137-128.5564 65.4823-133.4958 61.2985-135.21 60.8263-135.7673 58.98-135.9373 57.3698-136.0317 54.4562-132.2585 53.2095-130.417 55.3534-128.4856 58.536-124.7551 59.3199-121.4873 60.5902-118.9375 61.4449-116.2126 61.1381-113.5776 61.426-108.1709 62.5499-102.7969 61.0765-97.3569 61.1993-80.9192 60.6941-65.3264 54.0216-51.552 45.4557-37.0266 36.9132-25.2495 24.7252-14.1902 12.1832-11.0215 8.2213-7.1445 4.2357-6.0208-.8217-5.0706-4.3282 .0029-3.3389 .0029-.1364 .0029-.0913 .0022-.0459 0 0Z"/>
<path transform="matrix(1,0,0,1,752.5365,740.9662)" d="M0 0C0 .0189 0 .0331-.0049 .0519-.0757 1.6858-1.3176 3.0647-3.0176 3.0836-4.6277 3.1024-6.1531 1.733-6.1057 .0708-4.5994-20.2582-23.6108-25.4053-39.4585-29.7781-53.7856-33.4613-69.1799-33.6313-83.5825-30.5856-86.0664-30.51-87.5728-33.5889-86.0476-35.5297-83.4172-38.4291-73.4912-37.853-69.3311-38.5566-56.4868-39.4633-43.4866-37.8907-31.2986-33.6927-18.511-30.307-5.4873-24.3712-1.0862-10.828-.1604-7.6859 .0054-4.3718 .0054-1.099 .0054-.7319 .0034-.3657 0 0Z"/>
<path transform="matrix(1,0,0,1,737.0524,694.4574)" d="M0 0C-.033 .7604-.3777 1.5348-1.1475 2.1675-7.4138 6.4269-14.0342 10.1481-20.4329 14.2091-21.5237 14.9835-22.605 15.7721-23.625 16.6362-26.7559 19.0824-30.5051 14.379-27.4121 11.848-20.447 6.2805-12.2351 2.4839-4.9346-2.6207-2.6318-4.4231 .0029-2.3566 .0029-.1281 .0029-.0853 .002-.0427 0 0Z"/>
<path transform="matrix(1,0,0,1,813.9247,670.9741)" d="M0 0C-.0234 .5005-.085 1.0057-.1936 1.5253-5.1519 13.6801-23.9602 19.7197-34.7222 26.2742-40.2896 29.0555-45.5596 32.3752-51.2119 34.9818-54.8765 36.5402-57.28 31.0577-53.6533 29.3861-42.2163 23.4172-30.7695 17.4011-19.4648 11.1726 1.667-.5148-5.0337-4.7648-23.8564-11.2719-37.4988-15.5219-52.0195-14.1005-66.1011-14.4404-75.6021-14.9741-84.4231-15.196-93.8154-15.5266-103.5288-16.2161-113.1858-17.6421-122.9419-17.491-131.8621-17.746-141.8635-16.0649-149.7119-21.2404-152.3894-23.2048-153.9241-26.7275-153.0032-29.9858-149.9385-37.173-140.4517-37.9663-133.7178-39.5388-120.8877-41.9141-107.8071-40.71-94.8447-40.6155-83.1104-40.8232-71.2954-39.2507-59.6128-39.9591-67.5034-47.1227-78.3362-50.5698-88.1582-54.3759-103.4863-60.562-119.5325-64.6655-135.8191-66.9463-154.9062-69.6144-174.5693-69.9874-193.4912-66.0775-197.7458-65.676-202.0854-65.0811-206.345-65.4966-211.2275-66.7056-208.8523-74.3555-204.2104-71.4419-196.3574-71.2483-188.802-73.3779-181.0813-74.3555-171.3677-75.163-161.6165-75.0779-151.8794-74.7048-131.2671-73.3119-111.1365-69.605-91.936-62.2478-79.8284-57.8562-67.3145-53.6062-56.8408-45.9091-54.3665-43.7133-51.6982-39.8835-54.0168-36.6442-58.1062-31.8417-65.3879-33.9714-70.9175-33.8722-83.9556-34.4388-97.0122-34.5239-110.0549-34.8025-121.1096-34.8875-137.8638-35.0433-147.0486-28.4747-147.0815-21.0751-122.3516-24.3475-116.7605-23.4882-113.4124-23.3749-110.0691-23.1528-106.7354-22.8318-84.5884-20.3573-62.2571-20.9901-40.0298-20.1637-29.7798-19.9299 .0056-13.6746 .0085-.3931 .0088-.2621 .0059-.1324 0 0Z"/>
<path transform="matrix(1,0,0,1,512.3761,767.8779)" d="M0 0C-.2928 0-.5856-.0426-.8641-.1276-.5383-.0851-.2078-.0474 .118-.0049 .0802-.0049 .0377-.0049 0 0Z"/>
<path transform="matrix(1,0,0,1,456.1821,294.2672)" d="M0 0C-.033 .8452-.4532 1.6339-1.511 2.2949-5.6713 4.2122-6.9557-1.7944-8.9106-4.25-11.3473-6.3324-13.9681-8.1788-16.6078-9.9827-25.2448-15.4463-34.1129-20.5415-42.6931-26.0901-55.6177-34.4153-67.7632-44.0815-81.5331-51.0137-86.345-52.7845-83.4833-57.9741-81.2544-60.7555-78.6997-64.4388-76.4425-67.6641-74.1287-71.4041-70.7429-75.6965-68.6793-83.9366-62.2854-84.069-52.3123-83.7101-21.7031-35.4116-14.6434-25.0607-11.1064-19.5356-7.6545-13.9541-4.2594-8.3441-3.348-7.8293-2.7388-6.7668-2.668-5.7091-1.7543-4.0895 .0027-1.9823 .0031-.1289 .0031-.0856 .002-.043 0 0ZM-74.8512-54.4231C-55.1455-42.8302-37.0313-28.7297-17.0706-17.5051-25.1597-30.3636-33.7919-42.8679-42.731-55.1409-47.0942-61.0673-51.7361-66.7905-56.4866-72.4099-58.3519-74.327-60.1085-76.8346-62.5593-77.9348-67.7538-70.7429-72.0037-62.89-77.2689-55.7312-76.452-55.3062-75.6539-54.8575-74.8512-54.4231Z"/>
<path transform="matrix(1,0,0,1,474.5798,279.1752)" d="M0 0C-.0614 1.3741-.6328 2.4979-2.2478 3.0599-3.8392 3.4565-5.5769 2.465-5.95 .8405-6.238-.4109-6.5072-1.667-6.767-2.9279-9.2224-2.5831-10.2472-4.9159-10.6344-6.9464-11.2341-8.821-12.0558-10.6013-12.8302-12.4005-21.6843-28.1489-31.3553-44.0815-38.278-60.7273-40.8469-65.3975-34.6608-68.4055-31.8181-71.0876-26.704-74.5349-21.9912-79.2948-16.1405-81.3159-5.5581-83.1624-4.9253-30.562-3.3009-21.807-2.8665-17.2784-2.3092-12.7688-1.5773-8.2781-1.5726-6.0897 .0054-2.7919 .0054-.2534 .0054-.168 .0037-.0836 0 0ZM-22.4823-41.8291C-18.426-33.8156-13.4772-26.3073-9.1091-18.4733-11.2625-37.1636-11.0972-56.4111-16.4474-74.5537-21.9629-70.8468-27.4832-67.0645-32.4131-62.583-29.1925-55.6226-26.0807-48.6055-22.4823-41.8291Z"/>
<path transform="matrix(1,0,0,1,605.587,444.6638)" d="M0 0C-.0142 .2408-.0425 .4674-.085 .6847-.7461 2.7625-2.8333 3.6549-4.5806 4.656-8.6462 7.0691-12.5752 9.6898-16.301 12.6034-20.1968 15.7863-27.6577 23.455-29.9622 14.5868-33.6692-1.9078-39.2271-17.8782-45.9797-33.3669-50.4327-43.9683-54.6497-54.6733-59.2302-65.2228-62.2523-69.0854-65.2085-72.9955-68.1598-76.9196-70.4973-80.5509-64.8684-83.762-62.7765-79.9135-59.3199-81.9392-57.9504-78.3551-57.1241-75.6445-56.0663-73.1702-54.9567-70.7241-53.8846-68.2544-49.5686-62.772-45.059-57.4406-40.4784-52.1754-33.2134-42.8748 .0037-10.9805 .0046-.2169 .0046-.1434 .0032-.0714 0 0ZM-24.4985 11.4513C-21.5283 8.9957-18.5676 6.5402-15.3896 4.3491-12.4146 2.2997-9.3545 .4108-6.2427-1.4214-16.8015-19.2665-32.5972-33.3197-45.8759-49.0918-37.7112-29.287-28.9187-9.6144-24.4985 11.4513Z"/>
<path transform="matrix(1,0,0,1,355.6896,752.205)" d="M0 0C-.1511 .0048-.3022 .0142-.4534 .0142-.3022 0-.1511-.0142 0-.0283 0-.0189 0-.0094 0 0Z"/>
<path transform="matrix(1,0,0,1,553.629,756.0063)" d="M0 0C-.2219-.0708-.4486-.137-.6753-.2078-.4438-.2314-.2078-.2598 .0283-.2881 .0377-.2881 .0425-.2881 .0472-.2928 .0331-.1936 .0142-.0992 0 0Z"/>
<path transform="matrix(1,0,0,1,144.1596,694.1364)" d="M0 0C-.0283 .5619-.1653 1.157-.4438 1.7755-2.9985 12.8348-8.6462 22.775-12.9152 33.1921-14.5112 37.3949-20.9146 35.0811-19.4081 30.8169-15.0448 20.0361-9.0619 9.7985-6.7338-1.7095-4.7694-5.8241 .0038-3.823 .0042-.1848 .0042-.1237 .0027-.0621 0 0Z"/>
<path transform="matrix(1,0,0,1,171.3689,685.6742)" d="M0 0C-.0189 .4769-.1511 .9869-.425 1.5111-2.9987 6.1011-5.6147 10.6815-7.7822 15.484-9.01 18.1851-13.3354 17.7554-14.1288 14.9457-14.6105 10.606-8.4858 2.6208-6.5449-1.7047-4.6882-5.0972 .0028-3.2521 .0031-.1382 .0031-.0923 .0021-.0465 0 0Z"/>
<path transform="matrix(1,0,0,1,200.5188,698.1501)" d="M0 0C-.0188 .4865-.0802 .9586-.1747 1.4214-1.6575 11.7252-3.8627 21.9393-5.3455 32.2572-6.3276 36.6489-12.986 35.2134-12.0981 30.7839-10.6343 21.7551-9.2224 12.7216-7.428 3.7495-11.626 8.6936-18.9076 20.0315-26.2222 14.2374-28.0403 19.0021-30.1888 23.6298-32.5405 28.1537-33.6313 30.5431-35.1235 34.1035-38.3865 32.8948-40.3793 32.2053-41.2434 29.6884-40.1809 27.9034-38.3629 24.4089-36.5779 20.8862-34.9346 17.3021-32.1438 11.5364-30.8877 4.8639-27.4452-.4911-26.1135-1.6008-23.9697-1.5771-22.6947-.3918-21.3064 1.1476-21.3867 3.2158-21.4669 5.27-21.5095 6.3892-21.5566 7.5083-21.3584 8.5283-15.6021 4.7411-12.8065-2.1249-7.5413-6.4032-2.819-9.2375 .0092-4.6943 .0092-.4213 .0094-.2804 .0062-.14 0 0Z"/>
<path transform="matrix(1,0,0,1,258.5355,702.8204)" d="M0 0C-.0095 .2125-.0378 .4392-.0897 .6705-3.0647 9.671-3.5464 20.584-10.3888 27.6578-13.9541 31.0105-19.6254 28.777-20.8673 24.3098-24.0925 28.7816-31.2609 28.6305-31.0956 22.0856-30.5477 15.2526-28.1772 8.651-26.2128 2.1202-25.2778-.6422-24.0831-5.2605-20.2157-3.9667-18.119-3.2535-17.2926-.5194-18.5298 1.2844-20.2109 5.5438-21.4623 9.9402-22.624 14.3696-21.6371 12.5374-21.0278 10.5258-20.0977 8.6747-18.459 5.421-13.2126 6.9132-13.5952 10.5587-13.9304 14.3224-15.4651 18.1851-14.3885 21.9534-10.0536 15.2054-9.1941 6.7716-6.8378-.8027-5.8738-4.9004 .0031-3.8965 .0035-.1595 .0035-.1068 .0023-.0538 0 0Z"/>
<path transform="matrix(1,0,0,1,276.4751,715.0839)" d="M0 0C-.3022 5.5958-2.3375 11.3569-6.6772 15.0732-10.6533 18.3126-17.7743 18.6527-20.3951 13.5669-23.5212 3.9998-18.2654-7.0691-11.6827-14.0248-11.1633-17.439-6.6111-17.5522-4.6467-15.3612-.6646-12.4358 .0522-7.202 .0522-2.4421 .0522-1.6084 .0302-.7897 0 0ZM-13.8171 10.5447C-8.1222 10.2-6.9794 2.4745-6.8188-2.1155-6.8141-4.1838-7.0031-6.2758-7.6736-8.2401-10.455-5.1235-14.2233 1.7236-14.4546 6.9039-14.462 7.0679-14.4658 7.2302-14.4658 7.3907-14.4658 8.5615-14.2656 9.6353-13.8171 10.5447Z"/>
<path transform="matrix(1,0,0,1,303.3867,733.5759)" d="M0 0C-.0142 .3164-.0756 .6565-.1794 1.0247-1.9644 5.27-6.7385 2.1816-9.7371 1.2183-13.5715-.2456-17.6987-2.4839-19.2334-6.5543-19.6584-5.0149-19.8521-3.3008-20.6075-1.884-22.9923 2.0778-28.1111-.9585-27.1714-5.0811-26.3167-12.0084-24.6167-18.8745-22.0337-25.3628-21.5095-27.8702-21.807-31.7-18.4873-32.1249-9.6946-44.9268 4.1272-30.4155-5.5391-19.9984-7.5177-17.4296-10.436-15.7626-12.2257-13.0521-14.9174-8.0513-10.7335-6.5449-6.5449-5.0952-3.2709-3.9591 .0031-2.8591 .0033-.1499 .0033-.1005 .0022-.0505 0 0ZM-9.1375-28.1158C-9.0382-29.2681-10.0724-30.7461-11.2623-29.9763-14.1948-27.1997-15.5785-23.2236-16.1073-19.3137-13.6046-21.9911-9.6238-24.1727-9.1375-28.1158Z"/>
<path transform="matrix(1,0,0,1,315.4944,702.6268)" d="M0 0C-.0142 .3541-.085 .7178-.2219 1.105-2.4885 9.5293-4.08 18.1661-5.61 26.7605-6.3607 29.778-4.963 34.9772-9.3357 35.369-11.2104 35.4683-12.8727 33.9855-12.9766 32.1061-12.2965 20.8342-9.4443 9.6521-6.7102-1.2703-5.2858-5.0551 .0031-3.5573 .0033-.1479 .0033-.099 .0022-.0498 0 0Z"/>
<path transform="matrix(1,0,0,1,330.0859,701.9846)" d="M0 0C-.0048 .066-.0095 .137-.0142 .203-1.7709 5.9121-6.9369 9.9968-10.998 14.1523-7.4846 18.4779-8.0844 24.4656-6.8424 29.6174-6.4316 31.4591-7.7964 33.3149-9.605 33.6501-16.4379 34.0989-13.1277 22.4728-16.2585 18.6101-18.5771 18.78-20.6548 16.7164-20.1212 14.3695-18.4638 10.5068-14.2327 8.311-11.6166 5.0858-9.1847 2.8002-7.5649-.0992-5.6949-2.7389-3.537-4.6278 .0031-2.9224 .0032-.1466 .0032-.098 .0022-.0493 0 0Z"/>
<path transform="matrix(1,0,0,1,342.2833,703.6373)" d="M0 0C-.0472 1.0862-.307 2.21-.5289 3.1544-1.9172 10.6533-3.3953 18.1332-4.6466 25.6603-4.8639 28.1678-4.8119 31.6669-8.1505 31.8322-12.3958 31.9078-12.051 27.0723-11.3899 24.1115-9.6475 15.229-8.5094 6.0066-6.2522-2.668-5.4164-4.0327-3.6267-4.3679-2.2147-3.9099-.4825-3.3149 .0072-1.8931 .0072-.3354 .0072-.2242 .0046-.1123 0 0Z"/>
<path transform="matrix(1,0,0,1,353.1018,706.9807)" d="M0 0C-.0236 .5477-.0991 1.1379-.2361 1.7802-1.0105 9.6379-3.3905 17.2689-4.505 25.0416-3.7069 29.4711-10.403 30.7366-11.3002 26.3119-11.2529 17.4673-7.4752 8.8918-7.0408 .0046-8.193-3.6313-5.7894-5.5392-3.4802-5.2369-1.7054-5.0009 .0083-3.4554 .0084-.3793 .0084-.2552 .0056-.1292 0 0Z"/>
<path transform="matrix(1,0,0,1,368.8833,724.311)" d="M0 0C.0048 .2692 0 .5525-.0142 .8406-.2502 6.205-3.3008 14.8324-9.756 10.7854-16.3057 4.2831-17.9301-5.1802-20.3007-13.7227-23.8044-16.8109-19.3373-22.3312-15.6918-19.1862-11.0358-12.8159-12.2776-3.6786-7.2627 2.7152-6.3324-3.806-6.6913-10.4644-6.7621-17.0376-6.8047-18.917-5.421-20.5698-3.4991-20.6737-1.6669-20.7728 .0991-19.2948 .1417-17.4106 .2147-14.8486 .2609-12.2821 .2609-9.7163 .2609-6.475 .1871-3.2341 0 0Z"/>
<path transform="matrix(1,0,0,1,393.2592,707.2828)" d="M0 0C-.0236 .5903-.2267 1.2184-.6469 1.8654-1.7 3.3528-3.7825 3.7542-5.3124 2.7909-5.5391 2.8665-5.7563 2.9514-5.9735 3.0459-5.8979 3.0128-5.8177 2.9845-5.7422 2.9514-5.7327 2.9467-5.728 2.9467-5.558 2.8806-10.2612 5.2794-17.0565 17.0282-12.528 21.4954-9.6993 24.4515-3.178 20.8248-2.6066 26.1656-3.1119 33.6927-17.642 28.7865-19.4506 23.847-24.1964 14.7662-16.2773-.8027-6.9227-3.9147-4.0991-4.8961 .0027-2.9861 .0028-.1305 .0028-.0872 .002-.0437 0 0Z"/>
<path transform="matrix(1,0,0,1,396.985,726.1338)" d="M0 0C0 .0142 0 .0283 0 .0472-.0472 1.0389-.1888 2.073-.4203 3.1261-1.1758 6.9275-2.498 10.606-3.2772 14.4121-4.283 18.8037-10.9365 17.3588-10.0251 12.9387-9.161 7.5035-5.9358 2.0542-7.3903-3.5085-8.396-3.5793-9.3925-2.9467-10.1763-2.5122-13.9918-.0897-17.7035-5.9121-13.9115-8.3252-5.6097-13.5527 .016-8.4188 .016-.7164 .016-.48 .0106-.2411 0 0Z"/>
<path transform="matrix(1,0,0,1,441.0193,717.8983)" d="M0 0C-.0189 .4769-.0614 .9492-.1276 1.4025-.0614 13.7462-18.629 24.6119-26.7889 13.0474-31.3175 6.4552-21.807-13.7557-13.7699-13.8124-5.1857-18.1365 .0154-8.3683 .0159-.7252 .0159-.4807 .0106-.2396 0 0ZM-19.7906 10.4974C-13.4015 12.7263-6.6346 6.2474-6.97-.1936-7.1257-2.8663-7.1871-6.4458-9.6946-8.0323L-9.6238-7.9332C-9.7607-7.9521-9.8977-7.9521-10.0347-7.9143-10.4408-6.0963-12.3154-4.9158-14.1334-5.3171-14.2845-5.3502-14.431-5.3927-14.5774-5.4399-14.7568-5.4069-14.9457-5.3879-15.144-5.3879-16.7732-3.3243-20.9098 3.1969-21.094 7.3807-21.0984 7.4785-21.1006 7.5751-21.1006 7.6703-21.1006 8.9034-20.7245 9.9099-19.7906 10.4974Z"/>
<path transform="matrix(1,0,0,1,458.5575,706.976)" d="M0 0C-.0189 .4817-.1511 .9869-.425 1.5111-2.3423 6.8661-4.0658 12.2871-6.257 17.5382-5.3975 19.9464-8.8635 27.9977-10.7903 29.7072-12.7925 31.5441-16.4097 30.4344-16.8629 27.7145-17.1038 24.2955-14.9694 21.1884-13.9163 18.0245-11.0924 11.5929-9.0571 4.8354-6.5403-1.7047-4.6881-5.0972 .0028-3.2521 .0031-.1382 .0031-.0923 .002-.0465 0 0Z"/>
<path transform="matrix(1,0,0,1,476.4309,709.3748)" d="M0 0C-.0142 .3447-.0897 .6848-.2173 1.0153-3.4897 8.7078-4.2122 17.2266-7.6169 24.8528-10.7949 31.87-17.8451 31.5253-20.2488 24.1587-23.1293 17.4343-23.337 10.0441-24.7773 2.9656-28.4275-.0991-23.611-6.1765-19.8804-2.8049-15.5737 4.3397-17.5665 14.1052-13.7747 21.6985-10.7004 14.2563-9.8788 6.0728-6.7102-1.36-6.0208-3.1118-4.08-4.08-2.2761-3.4188-.9084-2.9248 .0028-1.5402 .0029-.1364 .0029-.0908 .0018-.0454 0 0Z"/>
<path transform="matrix(1,0,0,1,510.6477,705.9465)" d="M0 0C-.0188 .3872-.1039 .7933-.2738 1.2136-2.9749 10.6484-5.2274 20.2345-7.8671 29.7024-8.8871 34.0752-15.55 32.6538-14.6198 28.2291-11.7487 18.3126-9.6663 8.0985-6.5308-1.6953-4.7574-5.0604 .0026-3.319 .0031-.1392 .0031-.0929 .0021-.0469 0 0Z"/>
<path transform="matrix(1,0,0,1,531.8125,705.4838)" d="M0 0C-.0094 .2125-.0377 .4297-.085 .6564-2.3469 11.0452-5.0197 21.3489-8.0465 31.5394-9.6096 35.7562-16.0128 33.4376-14.5348 29.1642-11.6448 19.257-9.0004 9.2743-6.8376-.817-5.8876-4.9288 .0035-3.9158 .0035-.1599 .0035-.1072 .0024-.054 0 0Z"/>
<path transform="matrix(1,0,0,1,543.8446,707.4104)" d="M0 0C-.0708 1.5819-1.105 3.1024-3.1874 3.2394-8.788 3.4613-14.3695 3.8344-19.9464 4.3491-21.0892 4.5002-22.2225 4.6418-23.3464 4.8827-27.1288 8.7076-31.9879 2.1202-27.6625-.7225-20.2156-3.8628-11.5173-2.8759-3.5652-3.6644-1.2218-3.756 .0035-1.9531 .0038-.1696 .0038-.1129 .0026-.0565 0 0Z"/>
<path transform="matrix(1,0,0,1,565.647,704.1379)" d="M0 0C-.0095 .2078-.0378 .4249-.0851 .6469-1.8889 7.5177-4.2263 14.2845-5.2936 21.3395-5.7753 24.2814-10.0865 25.0087-11.5789 22.4681-13.2834 17.2784-7.9049 5.0432-6.8378-.8264-5.8877-4.9476 .0035-3.9164 .0035-.1599 .0035-.1072 .0023-.0538 0 0Z"/>
<path transform="matrix(1,0,0,1,554.6962,742.4631)" d="M0 0C-.085 1.884-1.8888 3.3196-3.7211 3.178-5.6477 3.0222-6.9794 1.3411-6.8943-.5383-6.8093-2.4177-5.0055-3.8628-3.178-3.7163-1.3066-3.5604 .0034-1.9744 .0034-.1611 .0034-.1077 .0024-.054 0 0Z"/>
</g>
</svg>